<svg width="20" height="20" viewBox="0 0 20 20" fill="none" xmlns="http://www.w3.org/2000/svg">
<path fill-rule="evenodd" clip-rule="evenodd" d="M5 0C2.23858 0 0 2.23858 0 5V15C0 17.7614 2.23858 20 5 20H15C17.7614 20 20 17.7614 20 15V5C20 2.23858 17.7614 0 15 0H5ZM9.865 13.245L14.615 8.495C14.955 8.155 14.955 7.605 14.615 7.255C14.275 6.915 13.715 6.915 13.375 7.255L9.245 11.385L7.495 9.635C7.155 9.295 6.595 9.295 6.255 9.635C5.915 9.975 5.915 10.525 6.255 10.875L8.635 13.245C8.805 13.415 9.025 13.495 9.245 13.495C9.475 13.495 9.695 13.415 9.865 13.245Z" fill="#5B7DDE"/>
<path d="M9.865 13.245L14.615 8.495C14.955 8.155 14.955 7.605 14.615 7.255C14.275 6.915 13.715 6.915 13.375 7.255L9.245 11.385L7.495 9.635C7.155 9.295 6.595 9.295 6.255 9.635C5.915 9.975 5.915 10.525 6.255 10.875L8.635 13.245C8.805 13.415 9.025 13.495 9.245 13.495C9.475 13.495 9.695 13.415 9.865 13.245Z" fill="white"/>
</svg>
