<svg width="16" height="16" viewBox="0 0 16 16" fill="none" xmlns="http://www.w3.org/2000/svg">
<g clip-path="url(#clip0_143_1795)">
<path d="M8 0.84082C6.50868 0.842512 5.07892 1.43569 4.02439 2.49021C2.96987 3.54474 2.37669 4.9745 2.375 6.46582C2.375 11.279 7.48864 14.9142 7.70661 15.0663C7.79259 15.1265 7.89502 15.1589 8 15.1589C8.10498 15.1589 8.20741 15.1265 8.29339 15.0663C8.51136 14.9142 13.625 11.279 13.625 6.46582C13.6233 4.9745 13.0301 3.54474 11.9756 2.49021C10.9211 1.43569 9.49132 0.842512 8 0.84082ZM8 4.42037C8.40455 4.42037 8.80002 4.54033 9.13639 4.76509C9.47277 4.98984 9.73494 5.3093 9.88975 5.68306C10.0446 6.05682 10.0851 6.46809 10.0062 6.86487C9.92723 7.26165 9.73242 7.62611 9.44635 7.91218C9.16029 8.19824 8.79583 8.39305 8.39905 8.47197C8.00227 8.5509 7.591 8.51039 7.21724 8.35557C6.84348 8.20076 6.52402 7.93859 6.29927 7.60221C6.07451 7.26584 5.95455 6.87037 5.95455 6.46582C5.95455 5.92333 6.17005 5.40306 6.55365 5.01947C6.93724 4.63587 7.45751 4.42037 8 4.42037Z" fill="white"/>
</g>
<defs>
<clipPath id="clip0_143_1795">
<rect width="15" height="15" fill="white" transform="translate(0.5 0.5)"/>
</clipPath>
</defs>
</svg>
