<svg width="28" height="29" viewBox="0 0 28 29" fill="none" xmlns="http://www.w3.org/2000/svg">
<g clip-path="url(#clip0_141_1637)">
<path d="M14.1699 28.5H13.9129C13.9074 28.4945 13.8965 28.489 13.891 28.4835C13.1692 28.325 12.8356 27.9093 12.8356 27.171V25.1804C12.327 25.4757 11.8512 25.7492 11.3699 26.0281C11.0692 26.2031 10.752 26.2906 10.402 26.1976C9.91525 26.0664 9.61447 25.7492 9.51603 25.2625C9.41212 24.7429 9.63634 24.2671 10.0902 24.0046C10.9598 23.5015 11.8238 22.9984 12.6988 22.5007C12.7918 22.4625 12.8465 22.3695 12.8356 22.271C12.8301 20.4226 12.8301 18.5742 12.8301 16.7312V16.5671C12.7809 16.5945 12.759 16.6 12.7426 16.6109C11.1184 17.5515 9.49415 18.4867 7.86994 19.4218C7.79884 19.4546 7.75509 19.5312 7.76603 19.6132C7.7715 20.5921 7.7715 21.5656 7.76603 22.539C7.76603 22.6375 7.75509 22.7359 7.74416 22.8343C7.68947 23.3648 7.16447 23.9226 6.40431 23.846C5.85197 23.7859 5.36525 23.2554 5.36525 22.6593V20.8765L5.29962 20.9148C4.71994 21.2484 4.14025 21.582 3.56603 21.9156C3.309 22.0742 3.00822 22.1398 2.71291 22.1015C2.24806 22.0304 1.86525 21.6968 1.73947 21.2375C1.61369 20.7945 1.76134 20.2585 2.12228 20.007C2.50509 19.7445 2.91525 19.5257 3.31447 19.2906C3.59337 19.1265 3.87775 18.9625 4.17306 18.7929C3.659 18.4976 3.16134 18.2132 2.66369 17.9234C2.18244 17.6445 1.93087 17.1304 2.04025 16.6601C2.24259 15.7796 3.10119 15.4078 3.89416 15.8617C4.73634 16.3539 5.584 16.8351 6.42619 17.3273C6.51369 17.3875 6.62853 17.3875 6.71603 17.3273C8.16525 16.4851 9.61447 15.6484 11.0692 14.8117C11.2332 14.7187 11.3918 14.6203 11.5668 14.5164L10.7902 14.0679C9.41212 13.275 8.034 12.482 6.66134 11.6835C6.53556 11.607 6.45353 11.6125 6.32775 11.6835C5.50744 12.1648 4.68166 12.6406 3.85587 13.1164C3.58791 13.2804 3.27072 13.3351 2.96994 13.275C2.54884 13.1929 2.14962 12.821 2.06212 12.3945C1.95822 11.9132 2.07853 11.4867 2.47228 11.1859C2.75119 10.9726 3.06837 10.8195 3.36916 10.639C3.60978 10.4968 3.84494 10.3601 4.10197 10.2125C4.03634 10.1742 3.99259 10.1468 3.94884 10.1195C3.41291 9.80776 2.87697 9.50151 2.34103 9.18433C1.79416 8.86714 1.58087 8.17261 1.85978 7.6312C2.15509 7.05151 2.82228 6.78355 3.40197 7.05151C3.74103 7.20464 4.05822 7.41245 4.38087 7.59839C4.70353 7.78433 5.03166 7.97573 5.37619 8.17261V6.28589C5.37619 5.5312 6.11447 4.96245 6.84181 5.14839C7.41056 5.29058 7.7715 5.76089 7.7715 6.37339V9.44683C7.76603 9.52886 7.80978 9.61089 7.89181 9.6437C9.26447 10.4312 10.6317 11.2187 12.0043 12.0117L12.8301 12.4875C12.8356 12.4656 12.841 12.4492 12.841 12.4273V6.64136C12.8356 6.58667 12.8082 6.54292 12.7645 6.51558C12.4582 6.32964 12.141 6.15464 11.8293 5.97417C11.2168 5.6187 10.6043 5.27417 10.0082 4.90776C9.59806 4.6562 9.40666 4.10933 9.53244 3.66089C9.75665 2.85151 10.566 2.50698 11.3043 2.91714C11.5996 3.0812 11.8949 3.2562 12.1902 3.42573C12.3981 3.54605 12.6059 3.66089 12.8356 3.79214V1.78511C12.8356 1.16167 13.1856 0.696826 13.7488 0.554639L13.9129 0.516357H14.1699C14.1863 0.527295 14.2027 0.532764 14.2192 0.538232C14.8262 0.642139 15.2254 1.10698 15.2254 1.72495V3.7812C15.2965 3.74292 15.3512 3.71558 15.4004 3.68823C15.8488 3.4312 16.2918 3.1687 16.7402 2.91167C17.0465 2.73667 17.3637 2.67105 17.7082 2.78042C18.2004 2.93355 18.4957 3.27808 18.5559 3.7812C18.616 4.28433 18.4192 4.69995 17.9652 4.96792C17.0848 5.48198 16.2043 5.99058 15.3238 6.49917C15.2527 6.53198 15.2145 6.60308 15.2199 6.67417V12.2906C15.2199 12.3234 15.2254 12.3617 15.2309 12.4109L15.6902 12.1429C17.1777 11.2843 18.6652 10.4257 20.1582 9.56714C20.2621 9.51792 20.3223 9.41401 20.3059 9.29917C20.3004 8.33667 20.3004 7.37417 20.3059 6.41167C20.3059 6.2148 20.3387 6.01792 20.4043 5.83198C20.5957 5.32886 21.1754 5.03355 21.7168 5.13198C22.2418 5.22495 22.6629 5.68433 22.6793 6.22026C22.6957 6.78355 22.6902 7.35229 22.6902 7.92105V8.10151L22.8434 8.01401C23.3793 7.70776 23.9098 7.40151 24.4402 7.0898C24.6863 6.94214 24.9817 6.89292 25.266 6.94214C25.7801 7.03511 26.141 7.41245 26.2395 7.94292C26.3215 8.38042 26.0973 8.87808 25.6817 9.13511C25.3426 9.34292 24.9926 9.53433 24.6481 9.73667L23.8988 10.1742C23.9317 10.196 23.9481 10.207 23.959 10.2179C24.4731 10.5132 24.9871 10.8031 25.4902 11.1093C25.8567 11.3226 26.0699 11.7328 26.0317 12.1539C25.9824 13.0781 25.0199 13.5867 24.216 13.1273C23.352 12.6296 22.4824 12.1265 21.6184 11.6234C21.5473 11.5687 21.4488 11.5687 21.3777 11.6179C20.0817 12.3726 18.7801 13.1273 17.4785 13.8765L16.352 14.5273C16.6746 14.7132 16.9754 14.8937 17.2762 15.0687C18.616 15.8453 19.9559 16.6164 21.3012 17.3929C21.3723 17.4476 21.4707 17.4476 21.5418 17.3984C22.4551 16.8679 23.3684 16.3429 24.2871 15.8179C24.5606 15.6593 24.8942 15.6265 25.1895 15.7304C25.6981 15.8945 25.9824 16.2609 26.0317 16.7804C26.0754 17.2507 25.8731 17.6226 25.4793 17.8796C25.2059 18.0546 24.916 18.2078 24.6317 18.3773L23.8277 18.8421C23.866 18.8695 23.8879 18.8859 23.9098 18.8968L25.6598 19.9031C26.0645 20.1382 26.2887 20.4937 26.2942 20.9585C26.3051 21.8664 25.3207 22.446 24.5168 22.0085C24.1449 21.8062 23.7785 21.582 23.4121 21.3687C23.177 21.232 22.9418 21.1007 22.6957 20.9585V22.4406C22.6957 22.5554 22.6902 22.6703 22.6793 22.7796C22.6192 23.4085 22.0777 23.8679 21.4434 23.8515C20.8199 23.8351 20.2949 23.2773 20.3004 22.6812C20.3059 21.6859 20.3004 20.6906 20.3004 19.6953C20.3004 19.6296 20.2731 19.5695 20.2238 19.5312C19.9559 19.3671 19.677 19.2085 19.4035 19.05C18.0856 18.2898 16.7731 17.5296 15.4551 16.7695C15.3785 16.7257 15.3074 16.6875 15.2145 16.6382C15.2145 18.5523 15.2145 20.4335 15.2199 22.3203C15.2254 22.375 15.2582 22.4296 15.3074 22.457C15.6957 22.6867 16.084 22.9109 16.4777 23.1351C17.0027 23.4414 17.5387 23.7367 18.0527 24.0648C18.5449 24.3765 18.6981 25.0164 18.4465 25.5523C18.2059 26.0718 17.6043 26.3617 17.0574 26.1812C16.7512 26.0773 16.4723 25.8968 16.1879 25.7382C15.8652 25.5632 15.5535 25.3718 15.2145 25.1804V27.2968C15.2145 27.6906 15.0613 28.0242 14.7332 28.2484C14.5746 28.3632 14.3668 28.4179 14.1699 28.5Z" fill="#5B7DDE"/>
</g>
<defs>
<clipPath id="clip0_141_1637">
<rect width="28" height="28" fill="white" transform="translate(0 0.5)"/>
</clipPath>
</defs>
</svg>
